<svg width="32" height="32" viewBox="0 0 32 32" fill="none" xmlns="http://www.w3.org/2000/svg">
<path d="M9.92423 3.3088C9.52316 3.24693 9.50609 3.24053 9.69596 3.2128C10.0586 3.15733 10.912 3.232 11.5008 3.37067C12.8746 3.69493 14.1248 4.52693 15.4602 6.00533L15.8144 6.39787L16.3221 6.3168C18.4597 5.97547 20.6314 6.2464 22.4512 7.08053C22.9525 7.31093 23.7418 7.76747 23.8378 7.8848C23.872 7.9232 23.9296 8.16213 23.9658 8.42027C24.1024 9.312 24.0362 9.99253 23.761 10.5024C23.6117 10.7797 23.6032 10.8672 23.7034 11.1061C23.7514 11.2045 23.826 11.2875 23.9188 11.3456C24.0115 11.4037 24.1188 11.4345 24.2282 11.4347C24.6805 11.4347 25.1669 10.7093 25.3909 9.69813L25.4805 9.29493L25.6576 9.49547C26.6325 10.592 27.3962 12.0853 27.5264 13.1477L27.5605 13.4251L27.3984 13.1733C27.1627 12.7878 26.846 12.458 26.4704 12.2069C25.8176 11.7781 25.1264 11.6309 23.3002 11.5349C21.649 11.4496 20.7146 11.3088 19.7888 11.008C18.2122 10.496 17.4186 9.8176 15.5456 7.37707C14.7136 6.2912 14.2016 5.69173 13.6896 5.2096C12.5269 4.11093 11.3856 3.53493 9.92423 3.31093V3.3088Z" fill="white"/>
<path d="M24.2133 5.73013C24.2538 5.0048 24.352 4.5248 24.5525 4.08747C24.5964 3.97694 24.6515 3.87116 24.7168 3.77173C24.7274 3.77173 24.6933 3.89973 24.64 4.05547C24.4949 4.48213 24.4693 5.0624 24.5717 5.73867C24.6997 6.59627 24.7701 6.72 25.681 7.64587C26.1098 8.08107 26.6069 8.6272 26.7882 8.864L27.1168 9.29067L26.7882 8.9856C26.3872 8.61227 25.4656 7.88267 25.2608 7.77813C25.1242 7.70987 25.1029 7.70987 25.0197 7.79307C24.9408 7.86987 24.9258 7.98507 24.913 8.5312C24.8981 9.3824 24.7808 9.92853 24.4992 10.4725C24.3477 10.7712 24.3242 10.7072 24.4608 10.3723C24.5632 10.1248 24.5738 10.0139 24.5738 9.1904C24.5738 7.53707 24.3733 7.13813 23.2149 6.45973C22.8655 6.25792 22.5067 6.07282 22.1397 5.90507C21.9589 5.83238 21.7835 5.74683 21.6149 5.64907C21.6469 5.61707 22.7776 5.9456 23.232 6.1184C23.9104 6.37867 24.0213 6.41067 24.1045 6.3808C24.1578 6.35947 24.1856 6.19947 24.2112 5.73013H24.2133ZM10.7029 8.56107C9.8901 7.44747 9.38449 5.73867 9.49543 4.4608L9.52743 4.06613L9.71303 4.09813C10.0629 4.16213 10.6624 4.384 10.944 4.55467C11.7141 5.01973 12.049 5.632 12.3882 7.2064C12.4885 7.6672 12.6186 8.18773 12.6784 8.36693C12.7744 8.65067 13.1413 9.31413 13.4378 9.74507C13.6512 10.0565 13.5104 10.2037 13.0368 10.1611C12.3136 10.0971 11.3344 9.42507 10.7029 8.56107ZM23.2234 16.8533C19.4176 15.3323 18.0778 14.0096 18.0778 11.7803C18.0778 11.4517 18.0885 11.1829 18.1034 11.1829C18.1162 11.1829 18.2634 11.2896 18.4298 11.424C19.2021 12.0384 20.0661 12.3008 22.4597 12.6485C23.8677 12.8533 24.657 13.0176 25.3888 13.2587C27.7141 14.0245 29.1498 15.5776 29.4933 17.696C29.5914 18.3104 29.536 19.4624 29.3717 20.0704C29.2437 20.5504 28.8554 21.4144 28.753 21.4485C28.7232 21.4592 28.6954 21.3504 28.689 21.2011C28.6506 20.4075 28.2453 19.6331 27.5669 19.0528C26.7946 18.3936 25.7578 17.8667 23.2234 16.8533ZM20.5525 17.4869C20.5078 17.2168 20.4465 16.9496 20.369 16.6869L20.2709 16.3989L20.4522 16.6016C20.7018 16.8789 20.9002 17.2352 21.0666 17.7109C21.1946 18.0736 21.2074 18.1803 21.2074 18.7691C21.2074 19.3472 21.1904 19.4688 21.0709 19.7931C20.907 20.2739 20.6322 20.7095 20.2688 21.0645C19.5733 21.7685 18.6794 22.1568 17.3888 22.3189C17.1648 22.3467 16.512 22.3936 15.9381 22.4235C14.4896 22.4981 13.536 22.6539 12.6805 22.9525C12.6029 22.9866 12.5198 23.0061 12.4352 23.0101C12.401 22.976 12.9856 22.6304 13.4656 22.4C14.144 22.0736 14.8202 21.8965 16.3349 21.6469C17.0816 21.5232 17.856 21.3717 18.0522 21.312C19.904 20.7488 20.8576 19.2917 20.5525 17.4869Z" fill="white"/>
<path d="M22.2976 20.5675C21.792 19.488 21.6746 18.4448 21.952 17.472C21.9818 17.3653 22.0288 17.2821 22.0586 17.2821C22.0864 17.2821 22.208 17.3461 22.3232 17.4251C22.5578 17.5808 23.0229 17.8432 24.2688 18.5173C25.8218 19.36 26.7093 20.0107 27.3109 20.7573C27.8378 21.408 28.1642 22.1525 28.3221 23.0571C28.4117 23.5691 28.3584 24.8064 28.2261 25.3227C27.808 26.9525 26.8394 28.2325 25.4528 28.9792C25.2501 29.088 25.0688 29.1776 25.0474 29.1776C25.0282 29.1776 25.1029 28.992 25.2117 28.7637C25.6789 27.7952 25.7322 26.8544 25.3802 25.8069C25.1626 25.1648 24.7232 24.3819 23.8357 23.0571C22.8032 21.5211 22.5514 21.1093 22.2976 20.5675ZM7.99998 26.3979C9.41438 25.2117 11.1701 24.3712 12.7722 24.1109C13.5974 24.0051 14.4345 24.0376 15.249 24.2069C16.273 24.4672 17.1904 25.0517 17.6661 25.7451C18.1312 26.4256 18.3317 27.0165 18.5408 28.3349C18.6218 28.8533 18.7114 29.376 18.737 29.4933C18.8928 30.176 19.1978 30.7221 19.5733 30.9952C20.1706 31.4304 21.2032 31.4581 22.2165 31.0656C22.3218 31.0171 22.4329 30.9827 22.5472 30.9632C22.5834 30.9995 22.0736 31.3387 21.7152 31.5179C21.29 31.744 20.8143 31.8585 20.3328 31.8507C19.4048 31.8507 18.6346 31.3813 17.9904 30.4256C17.7541 30.021 17.5432 29.602 17.3589 29.1712C16.6805 27.6331 16.3456 27.1659 15.5584 26.6517C14.8714 26.2037 13.9861 26.1248 13.3205 26.4491C12.4458 26.8757 12.2026 27.9851 12.8298 28.6891C13.1228 28.9916 13.5062 29.1907 13.9221 29.2565C14.0873 29.2792 14.2555 29.266 14.4151 29.218C14.5748 29.1699 14.7223 29.0881 14.8475 28.978C14.9728 28.8679 15.0729 28.7322 15.1411 28.58C15.2092 28.4278 15.2439 28.2627 15.2426 28.096C15.2426 27.6331 15.0634 27.3707 14.6133 27.1659C13.9968 26.8907 13.3376 27.2128 13.3397 27.7867C13.3397 28.032 13.4485 28.1856 13.696 28.2987C13.8538 28.3691 13.8581 28.3733 13.728 28.3477C13.1648 28.2304 13.0325 27.5541 13.4848 27.1061C14.0309 26.5685 15.1573 26.8053 15.5434 27.5413C15.7056 27.8507 15.7248 28.4651 15.584 28.8363C15.264 29.6683 14.3424 30.1056 13.4037 29.8667C12.7637 29.7045 12.5056 29.5296 11.7354 28.7424C10.3978 27.3728 9.87945 27.1061 7.95091 26.8075L7.57971 26.7499L7.99998 26.3979Z" fill="white"/>
<path fill-rule="evenodd" clip-rule="evenodd" d="M1.72375 1.88587C6.19095 7.27467 9.26935 9.4976 9.61069 9.96693C9.89229 10.3552 9.78562 10.7051 9.30349 10.9781C8.96063 11.1504 8.58741 11.254 8.20482 11.2832C7.89122 11.2832 7.78242 11.1637 7.78242 11.1637C7.60109 10.9931 7.49869 11.0229 6.56642 9.37813C5.77382 8.14455 4.97166 6.91714 4.16002 5.696C4.09175 5.632 4.09389 5.632 6.43629 9.7984C6.81389 10.6667 6.51095 10.9845 6.51095 11.1083C6.51095 11.36 6.44055 11.4923 6.12909 11.84C5.60855 12.416 5.37602 13.0645 5.20749 14.4064C5.01975 15.9104 4.49069 16.9728 3.02295 18.7925C2.16535 19.8571 2.02455 20.0512 1.80695 20.4821C1.53389 21.0219 1.45922 21.3248 1.42935 22.0053C1.39735 22.7285 1.45922 23.1936 1.68109 23.8827C1.87309 24.4885 2.07789 24.8853 2.59629 25.6832C3.04429 26.3723 3.30029 26.8843 3.30029 27.0848C3.30029 27.2427 3.33015 27.2427 4.02562 27.0869C5.68109 26.7157 7.02722 26.0629 7.78455 25.2587C8.25389 24.7616 8.36269 24.4885 8.36695 23.808C8.36909 23.3643 8.35415 23.2704 8.23255 23.0144C8.03629 22.5984 7.67789 22.2507 6.88855 21.7131C5.85175 21.0091 5.40802 20.4437 5.28855 19.6651C5.18615 19.0251 5.30349 18.5749 5.87522 17.3824C6.46829 16.1451 6.61549 15.6181 6.71575 14.3744C6.77975 13.5701 6.86722 13.2523 7.09975 12.9963C7.34295 12.7317 7.56055 12.6421 8.16215 12.5611C9.14135 12.4267 9.76215 12.1771 10.2742 11.7077C10.4794 11.5383 10.645 11.326 10.7592 11.0857C10.8735 10.8454 10.9337 10.5829 10.9355 10.3168L10.9568 9.8688L10.7072 9.58293C9.80909 8.54187 1.12215 1.06667 1.06669 1.06667C1.05602 1.06667 1.35042 1.43573 1.72375 1.88587ZM3.80589 22.8245C3.90376 22.6517 3.93286 22.4483 3.88739 22.2549C3.84191 22.0616 3.72521 21.8924 3.56055 21.7813C3.24055 21.568 2.73922 21.6704 2.73922 21.9456C2.73922 22.0309 2.78615 22.0928 2.89282 22.1461C3.07202 22.2379 3.08482 22.3403 2.94402 22.5515C2.80109 22.7627 2.81389 22.9483 2.97602 23.0763C3.23842 23.2789 3.60962 23.168 3.80589 22.8245ZM11.5734 12.7979C11.1147 12.9365 10.6688 13.4208 10.528 13.9285C10.4448 14.2379 10.4939 14.7819 10.6198 14.9483C10.8246 15.2192 11.0208 15.2896 11.5563 15.2875C12.6016 15.2811 13.5104 14.8352 13.6171 14.2763C13.7024 13.8197 13.3035 13.1883 12.7531 12.9088C12.3792 12.757 11.969 12.7184 11.5734 12.7979ZM12.7979 13.7472C12.9579 13.5189 12.8875 13.2736 12.6123 13.1072C12.0918 12.7893 11.3003 13.0517 11.3003 13.5424C11.3003 13.7877 11.712 14.0544 12.0896 14.0544C12.3414 14.0544 12.687 13.9051 12.7979 13.7472Z" fill="white"/>
</svg>
