<svg width="24" height="25" viewBox="0 0 24 25" fill="none" xmlns="http://www.w3.org/2000/svg">
<g clip-path="url(#clip0_1_158)">
<path d="M20.3172 5.09428C18.7612 4.37998 17.1191 3.8706 15.432 3.5789C15.4166 3.57603 15.4008 3.57808 15.3866 3.58475C15.3725 3.59143 15.3608 3.60239 15.3532 3.61608C15.1295 4.02215 14.9265 4.43924 14.7448 4.86577C12.9005 4.5896 11.065 4.5896 9.2586 4.86577C9.09466 4.47231 8.85263 3.99129 8.64069 3.61608C8.63284 3.60267 8.62112 3.59193 8.60706 3.5853C8.593 3.57866 8.57727 3.57643 8.56192 3.5789C6.87481 3.87002 5.23274 4.37942 3.67708 5.09428C3.66376 5.09997 3.65254 5.10966 3.64497 5.122C0.533417 9.76989 -0.31909 14.3042 0.0990509 18.7817C0.100222 18.7928 0.103609 18.8034 0.109011 18.8131C0.114413 18.8228 0.121718 18.8314 0.130488 18.8382C2.18333 20.3458 4.17161 21.2608 6.12339 21.8676C6.13857 21.8721 6.15477 21.8718 6.16981 21.8669C6.18485 21.8619 6.19802 21.8525 6.20756 21.8399C6.67034 21.2099 7.0804 20.5428 7.43359 19.8455C7.43839 19.8359 7.44112 19.8255 7.4416 19.8148C7.44208 19.8041 7.4403 19.7934 7.43638 19.7835C7.43245 19.7735 7.42647 19.7645 7.41883 19.757C7.41118 19.7495 7.40204 19.7437 7.39201 19.74C6.7453 19.4925 6.11923 19.1941 5.51967 18.8476C5.50878 18.8412 5.49963 18.8322 5.49304 18.8214C5.48645 18.8106 5.48262 18.7984 5.48189 18.7857C5.48115 18.7731 5.48354 18.7605 5.48883 18.749C5.49412 18.7375 5.50216 18.7275 5.51223 18.7199C5.63798 18.6255 5.76373 18.5275 5.88406 18.4285C5.89479 18.4197 5.90776 18.4141 5.92149 18.4123C5.93523 18.4105 5.94919 18.4126 5.96181 18.4183C9.88936 20.2112 14.1414 20.2112 18.0227 18.4183C18.0353 18.4122 18.0494 18.4099 18.0634 18.4115C18.0773 18.4131 18.0905 18.4186 18.1014 18.4275C18.2218 18.5265 18.3475 18.6255 18.4743 18.7199C18.4844 18.7275 18.4925 18.7374 18.4978 18.7489C18.5031 18.7603 18.5056 18.7729 18.5049 18.7855C18.5043 18.7982 18.5005 18.8104 18.494 18.8213C18.4874 18.8321 18.4784 18.8411 18.4675 18.8476C17.8695 19.197 17.243 19.4951 16.5948 19.739C16.5848 19.7429 16.5757 19.7488 16.5681 19.7564C16.5604 19.764 16.5545 19.7731 16.5507 19.7831C16.5468 19.7932 16.5451 19.8039 16.5457 19.8147C16.5462 19.8254 16.549 19.8359 16.5539 19.8455C16.913 20.539 17.3224 21.2052 17.7789 21.8388C17.7882 21.8518 17.8013 21.8615 17.8164 21.8666C17.8315 21.8717 17.8479 21.8719 17.8631 21.8672C19.824 21.2608 21.8126 20.3454 23.8655 18.8382C23.8743 18.8317 23.8816 18.8234 23.887 18.8138C23.8924 18.8042 23.8956 18.7937 23.8966 18.7827C24.3969 13.6058 23.0583 9.10904 20.3483 5.12234C20.3415 5.10941 20.3304 5.09934 20.3169 5.09394L20.3172 5.09428ZM8.01973 16.0555C6.83764 16.0555 5.86311 14.9701 5.86311 13.6366C5.86311 12.3034 6.81871 11.2177 8.01973 11.2177C9.23088 11.2177 10.196 12.3129 10.177 13.6366C10.177 14.9701 9.22108 16.0555 8.01973 16.0555ZM15.9948 16.0555C14.8124 16.0555 13.8382 14.9701 13.8382 13.6366C13.8382 12.3034 14.7935 11.2177 15.9948 11.2177C17.2056 11.2177 18.1707 12.3129 18.1514 13.6366C18.1514 14.9701 17.2056 16.0555 15.9948 16.0555Z" fill="white"/>
</g>
<defs>
<clipPath id="clip0_1_158">
<rect width="24" height="24" fill="white" transform="translate(0 0.734375)"/>
</clipPath>
</defs>
</svg>
