<svg width="24" height="24" viewBox="0 0 24 24" fill="none" xmlns="http://www.w3.org/2000/svg">
<path d="M12 0.0313721C5.37 0.0313721 0 5.40437 0 12.0314C0 17.3344 3.438 21.8314 8.205 23.4164C8.805 23.5294 9.025 23.1584 9.025 22.8394C9.025 22.5544 9.015 21.7994 9.01 20.7994C5.672 21.5234 4.968 19.1894 4.968 19.1894C4.422 17.8044 3.633 17.4344 3.633 17.4344C2.546 16.6904 3.717 16.7054 3.717 16.7054C4.922 16.7894 5.555 17.9414 5.555 17.9414C6.625 19.7764 8.364 19.2464 9.05 18.9394C9.158 18.1634 9.467 17.6344 9.81 17.3344C7.145 17.0344 4.344 16.0024 4.344 11.4044C4.344 10.0944 4.809 9.02437 5.579 8.18437C5.444 7.88137 5.039 6.66137 5.684 5.00837C5.684 5.00837 6.689 4.68637 8.984 6.23837C9.944 5.97137 10.964 5.83937 11.984 5.83337C13.004 5.83937 14.024 5.97137 14.984 6.23837C17.264 4.68637 18.269 5.00837 18.269 5.00837C18.914 6.66137 18.509 7.88137 18.389 8.18437C19.154 9.02437 19.619 10.0944 19.619 11.4044C19.619 16.0144 16.814 17.0294 14.144 17.3244C14.564 17.6844 14.954 18.4204 14.954 19.5444C14.954 21.1504 14.939 22.4404 14.939 22.8304C14.939 23.1454 15.149 23.5204 15.764 23.4004C20.565 21.8264 24 17.3264 24 12.0314C24 5.40437 18.627 0.0313721 12 0.0313721Z" fill="white"/>
</svg>
