<svg width="24" height="25" viewBox="0 0 24 25" fill="none" xmlns="http://www.w3.org/2000/svg">
<g clip-path="url(#clip0_1_152)">
<path d="M23.4562 5.17736C23.0789 5.34461 22.6912 5.48561 22.2952 5.60036C22.7672 5.067 23.123 4.44123 23.3399 3.76286C23.3637 3.68811 23.3642 3.60791 23.3413 3.53288C23.3184 3.45786 23.2733 3.39155 23.2119 3.34275C23.1505 3.29396 23.0757 3.26497 22.9974 3.25963C22.9192 3.25429 22.8412 3.27286 22.7737 3.31286C21.9363 3.81 21.0248 4.17004 20.0737 4.37936C19.1086 3.43865 17.8147 2.9113 16.4669 2.90936C15.7344 2.91016 15.0104 3.067 14.3431 3.36946C13.6759 3.67191 13.0807 4.11304 12.5973 4.66346C12.1139 5.21389 11.7532 5.86098 11.5394 6.56167C11.3256 7.26235 11.2635 8.00055 11.3572 8.72711C9.60404 8.57105 7.89986 8.06569 6.34503 7.24082C4.79021 6.41594 3.4162 5.28823 2.30395 3.92411C2.26439 3.87562 2.21366 3.83745 2.15611 3.81287C2.09856 3.78828 2.03591 3.77802 1.97353 3.78296C1.91115 3.7879 1.85089 3.8079 1.79793 3.84123C1.74497 3.87457 1.70088 3.92025 1.66945 3.97436C1.21215 4.76107 0.971482 5.6549 0.971948 6.56486C0.971948 7.80611 1.41445 8.98361 2.19745 9.90386C1.95924 9.82147 1.72863 9.71858 1.5082 9.59636C1.44989 9.56388 1.38417 9.54703 1.31743 9.54745C1.25069 9.54787 1.18519 9.56555 1.12729 9.59876C1.0694 9.63197 1.02108 9.67959 0.987023 9.73699C0.95297 9.7944 0.934341 9.85963 0.932948 9.92636V9.99461C0.932948 11.8471 1.93045 13.5159 3.45445 14.4256C3.32316 14.4125 3.19253 14.3935 3.06295 14.3686C2.99705 14.3561 2.92903 14.3609 2.86555 14.3825C2.80207 14.4042 2.74532 14.442 2.70085 14.4922C2.65638 14.5424 2.62572 14.6033 2.61189 14.669C2.59806 14.7346 2.60153 14.8027 2.62195 14.8666C2.89563 15.7212 3.38783 16.4894 4.0498 17.0952C4.71177 17.701 5.52052 18.1233 6.39595 18.3204C4.93578 19.2351 3.24623 19.7172 1.5232 19.7109C1.1587 19.7109 0.791197 19.6891 0.431947 19.6471C0.345486 19.6379 0.258433 19.658 0.184771 19.7042C0.111109 19.7504 0.0551142 19.82 0.0257812 19.9019C-0.00355171 19.9837 -0.00452027 20.0731 0.0230311 20.1555C0.0505825 20.238 0.105055 20.3088 0.177698 20.3566C2.41924 21.796 5.02732 22.5606 7.6912 22.5594C12.9367 22.5594 16.2187 20.0859 18.0472 18.0106C20.3279 15.4231 21.6359 11.9986 21.6359 8.61461C21.6359 8.47286 21.6337 8.32961 21.6292 8.18786C22.5296 7.50964 23.309 6.6843 23.9347 5.74661C23.9814 5.67692 24.0043 5.59391 23.9997 5.51012C23.9952 5.42632 23.9635 5.34627 23.9095 5.28203C23.8555 5.21779 23.7821 5.17284 23.7004 5.15396C23.6186 5.13508 23.5329 5.1433 23.4562 5.17736Z" fill="white"/>
</g>
<defs>
<clipPath id="clip0_1_152">
<rect width="24" height="24" fill="white" transform="translate(0 0.734375)"/>
</clipPath>
</defs>
</svg>
